<svg id="Layer_1" data-name="Layer 1" xmlns="http://www.w3.org/2000/svg" viewBox="0 0 1920 1080"><defs><style>.cls-1,.cls-6{fill:#001f3f;}.cls-1,.cls-2,.cls-3,.cls-4,.cls-7,.cls-8{stroke:#000;stroke-miterlimit:10;stroke-width:0.5px;}.cls-2,.cls-5{fill:#1e647c;}.cls-3{fill:#061f34;}.cls-4{fill:#071f35;}.cls-7{fill:#8ea8c4;}.cls-8{fill:#8eaac8;}</style></defs><text/><text/><path class="cls-1" d="M836.45,440.44c1.3,4.29,3.13,8.69,3.9,13.26,1.19,7.06-1.34,13.36-5.94,18.66-1.67,1.92-1.46,3.13-.26,5.08q25.29,40.91,50.45,81.88c1.12,1.83,2.25,3.07,4.88,3.11,4.47.08,7.32,3.85,7.1,8.44-.19,4.23-3.06,7.06-7.5,7.15s-8.76.2-13.12,0c-3.27-.19-4.78.87-5.75,4.15A53.94,53.94,0,0,1,851,610.44c-32.14,24.44-79.79,11.65-92.23-28-1.09-3.5-2.61-4.78-6.19-4.42a68,68,0,0,1-9.36.07c-4.29-.15-6.81-2.82-7-7.17s2.4-8.2,6.51-8c3.76.19,5.23-1.69,6.86-4.37Q774,518.21,798.68,478c.9-1.47,1.58-2.37-.16-4-13.23-12.43-10.44-32.21,5.62-40.74.77-.4,1.53-.82,2.76-1.48-3.42-1.81-6.53-3.46-9.66-5.1-37-19.39-59.06-62.4-52.09-102.87,5.22-30.26,21.68-52.54,50.05-65.07a54.19,54.19,0,0,1,42.67-.93,76.57,76.57,0,0,0,7.78,2.64c4.46,1.19,7.07-.08,9.24-4.19,2.78-5.25,5.3-6.78,8.73-5.29,3.67,1.59,4.82,5.45,3,10.7-3.32,9.79-9.2,16.88-20.15,18.11a24.32,24.32,0,0,1-7.4-.53c-18-3.57-37.25,14.43-33.53,36.08,2.55,14.8,13.21,24.59,28.71,27a108.84,108.84,0,0,0,16,1.13q21.93.24,43.87,0a7.17,7.17,0,0,0,4.81-2.59c9.77-12.5,20.92-23.43,34.44-31.92,49.64-31.15,112.44-22.53,151.67,20.93,3.52,3.89,6.8,8,10.37,11.83a5.72,5.72,0,0,0,3.7,1.82c18.62,0,37.25,0,55.86-.39,15.6-.36,27.8-9.13,32.63-22.65,7.1-19.89-9.33-43.06-29.42-41.56-4.31.32-8.77,1.09-12.94.38-9.31-1.6-18.28-12.9-18.34-22.22,0-3.27,1.73-5.36,4.79-6.39,3.25-1.09,5.47.52,6.74,3.19,3.67,7.75,6.81,8.71,15.48,5.05,22.74-9.59,43.49-4.91,62.27,9.39,36.11,27.51,45,76,22.1,117.1-11.7,21-28.3,36.62-51.21,45.9,1.19.71,1.86,1.19,2.6,1.54,16.28,7.76,19.89,27.35,7.22,40.08-2.07,2.08-2.26,3.37-.75,5.79q20.43,32.69,40.63,65.51c3.22,5.19,6.34,10.46,9.75,15.52a6.25,6.25,0,0,0,3.94,2.43c5,.62,8.33,3.93,8.12,8.53s-3.32,7.36-8.5,7.41c-3.13,0-6.26.14-9.37-.09-2.71-.19-3.94.77-4.71,3.44a55.48,55.48,0,0,1-17.76,27.59c-29.59,25-81,16.05-93.74-26.61-1-3.47-2.58-4.75-6.18-4.48a122,122,0,0,1-13.11.06c-3.89-.13-6.41-3-6.63-7.18-.21-4,2-7.71,5.44-7.77,4.15-.06,5.8-2.54,7.57-5.46,15.08-24.86,30-49.82,45.43-74.48,3.49-5.56,4.76-9.32.32-15.37-5.38-7.34-4.3-16.1-.16-24.21.56-1.09,1.21-2.13,1.29-2.28-16.39,0-33.1.08-49.81-.07a5.89,5.89,0,0,0-5.76,3c-11.61,18.26-26.54,33-45.75,43.27a72.33,72.33,0,0,1-8.13,3.8c-2.45.93-3.27,2.31-3.26,5,.08,33,0,66,0,99,0,17.88,0,35.75,0,53.62-.06,12.42-2.93,24-10.75,34-12.09,15.45-32,22.44-50.91,16.95-19.9-5.77-31.7-19.47-34.92-39.81-1.37-8.68-1-17.69-1-26.55q-.13-68.24,0-136.48c0-2.85-.92-4.05-3.42-5.18a121,121,0,0,1-53.15-46.34c-1.91-3-3.83-4.45-7.69-4.32-11.48.39-23,.3-34.49.21C845.05,441.27,840.59,440.73,836.45,440.44Zm305.43-38a77.47,77.47,0,0,0,27.72-5.34c33.94-13,50.78-51.27,37.12-84.63a33.79,33.79,0,0,0-1.59-3.07c-.49,6.54-.23,13.25-1.58,19.62-4.85,22.85-17.25,40-39.2,49.43a71.47,71.47,0,0,1-25.32,4.15c-33.71,0-67.43-.09-101.14.23-9.34.08-16.18-2.38-21.7-10.71a23.32,23.32,0,0,0-39,.27c-5,7.61-11.34,10.34-20.05,10.3-32.09-.16-64.18-.06-96.27.06-10.54,0-21-.42-30.91-4.38-18.47-7.23-29.79-21.23-36.57-39.25a62.75,62.75,0,0,1-3.65-29.82,6.66,6.66,0,0,0-1.5,2.05,58.58,58.58,0,0,0-4.45,34.08c5.7,34,33.58,57,68.52,57,1,.07,2,.21,3,.21,28.61,0,57.22,0,85.84-.09,3.15,0,5.18.87,6.65,3.62,6.29,11.75,13.36,23.14,18.85,35.24a179.36,179.36,0,0,1,15.23,56.43c.32,3.25-.64,4.26-3.74,4-2.49-.2-5,0-7.49-.09-2.94-.1-4.36,1.11-4.24,4.18.12,3.37.1,6.75,0,10.12-.12,2.94,1.27,4.07,4.06,4,4.49-.09,9,0,13.49-.23,3.15-.17,4.26.7,4.24,4.14-.18,28.61-.14,57.23-.15,85.84,0,11.25.09,22.49,0,33.74,0,2.43.72,3.35,3.2,3.22,3.11-.15,6.24,0,9.37,0,5.23,0,5.23,0,5.22-5.34,0-.37,0-.75,0-1.12q0-58.29,0-116.58c0-3.09.81-4.19,4-4,4.61.28,9.25.09,13.87.23,2.88.09,4.46-.73,4.21-4a96.07,96.07,0,0,1,0-9.75c.09-3.12-1.11-4.6-4.41-4.42-3,.16-6-.12-9-.08-1.78,0-2.48-.61-2.26-2.42.41-3.46.53-7,1.1-10.41,4.86-29.64,16.17-56.71,32.44-81.86,2.12-3.28,4.4-4.4,8.12-4.37,15.37.13,30.74.06,46.1,0C1113.9,402.64,1127.89,402.51,1141.88,402.41ZM920.4,343.32c6.14,0,12-.09,17.88,0a10,10,0,0,0,7.08-2.56c30.86-25.38,74-24.94,104.58,1,.74.62,1.62,1.53,2.45,1.54,6.79.13,13.59.07,20.66.07C1031.15,294,959.17,298,920.4,343.32Zm257.14,140.32-1.14-.19c-16.09,26.27-32.18,52.54-48.59,79.36,15.72,0,30.45-.13,45.17.08,3.6.06,4.66-.9,4.64-4.51-.16-21.47-.08-42.94-.08-64.41Zm-360.3-.56c0,26.37,0,51.57,0,76.76,0,2.32.73,3,3,3,9.85-.09,19.71,0,29.57,0h17Zm411,79.65-34-54.73c-.6,7.86-.6,15.35-.61,22.85,0,9.5,0,19,0,28.49,0,1.52-.48,3.41,2.17,3.4C1206.39,562.7,1217,562.73,1228.26,562.73ZM800.73,509l-1-.41c-10.89,17.84-21.77,35.68-33.06,54.19,11.2,0,21.31-.09,31.41.06,2.69,0,2.68-1.31,2.67-3.24Q800.71,534.29,800.73,509Zm225.06,151c-4.68,0-9-.13-13.4.1a5.24,5.24,0,0,0-3.22,2c-7.13,8.83-17.47,8.88-24.49.1-.77-1-2-2.09-3.12-2.15-4.45-.24-8.91-.1-13.42-.1,2.09,14.21,15.27,24.75,30,24.29C1012.16,683.83,1024.65,673.12,1025.79,660ZM944.42,471.38a86.86,86.86,0,0,0-13.61-28.91,3.09,3.09,0,0,0-2.08-1.24c-6-.09-12-.05-18.41-.05A93.64,93.64,0,0,0,944.42,471.38Zm139.24-30.16c-6,0-11.73-.07-17.42.06a4.49,4.49,0,0,0-3.14,1.36c-6.6,8.49-10.84,18.09-13.45,28.94A100.44,100.44,0,0,0,1083.66,441.22ZM815,445.92a9.17,9.17,0,0,0-9.39,9.49,9.92,9.92,0,0,0,9.8,9.75,9.44,9.44,0,0,0,9.6-9.76A9.78,9.78,0,0,0,815,445.92Zm364.64,0c-5.26,0-9.79,4.2-9.9,9.19a9.74,9.74,0,0,0,9.55,9.92c5.87.11,10-3.87,10-9.67C1189.3,450.45,1184.69,445.93,1179.66,445.92Z"/><path class="cls-1" d="M1009.17,762.74c.05,14.58-12.47,26.61-27.68,26.61-14.39,0-26.71-12.4-26.68-26.83,0-14.78,12.73-26.95,28-26.84C997.19,735.79,1009.13,748,1009.17,762.74Zm-27.27,14a13.73,13.73,0,0,0,13.91-14.41c-.15-7.54-6.84-14.13-14.24-14s-13.71,7.06-13.57,14.66A14.09,14.09,0,0,0,981.9,776.69Z"/><path class="cls-1" d="M1162.81,762.48c0-7.24.09-14.49,0-21.74,0-3,1.08-4.35,4.16-4.19,7.46.36,15.11-.3,22.36,1.1,12.58,2.43,20.52,13.49,20.11,26.13a25.18,25.18,0,0,1-21.75,24.06c-7.12,1-14.44.67-21.67.86-2.75.06-3.16-1.92-3.16-4.1Zm12.55-.27h-.07c0,2,0,4,0,6,0,9.52.56,9.94,10.1,7.79,5.41-1.22,9-4.45,10.32-9.68s-.1-9.79-4.15-13.58c-4.25-4-9.44-4.13-14.71-3.94-.52,0-1.39,1.41-1.42,2.19C1175.28,754.72,1175.36,758.47,1175.36,762.21Z"/><path class="cls-1" d="M791,762.29c0-7.11.06-14.23,0-21.34,0-3.13,1.17-4.52,4.42-4.5q14.79.06,29.58-.21c3.63-.07,5,1.62,4.8,5,0,.5,0,1,0,1.5-.12,5.41-.16,5.44-5.47,5.45-5.86,0-11.73.1-17.6,0-2.19,0-3,.47-3,2.88,0,5.84-.16,5.85,5.84,5.91,3.87,0,7.74.1,11.61,0,2.63-.08,3.54,1.2,3.5,3.58,0,1.25,0,2.5,0,3.74-.11,2.49-1.16,3.82-3.94,3.74-4.61-.13-9.24.16-13.85,0-2.41-.07-3.29.59-3.14,3.12.36,6.12-1.15,5.79,5.83,5.83,5,0,10-.11,15-.13s5.51.66,5.52,5.67c0,.5,0,1,0,1.5.39,3.54-1.09,4.8-4.72,4.73q-14.6-.32-29.21,0c-3.65.09-5-1.34-5-4.76,0-7.24,0-14.48,0-21.72Z"/><path class="cls-1" d="M1099.23,762.07c0-6.88.09-13.75,0-20.62-.07-3.42,1.11-5,4.75-5,9.62.07,19.24-.05,28.86-.17,3.31,0,4.69,1.34,4.68,4.71,0,7.22.09,7.22-7.09,7.22-5.13,0-10.26.2-15.37,0-3.91-.15-2.83,2.54-3,4.57-.16,2.18-.36,4.32,3,4.18,4.37-.19,8.75-.15,13.12-.12,4.2,0,4.62.59,4.61,5.65,0,4.7-.56,5.38-4.54,5.41-4.37,0-8.75.16-13.12,0-2.37-.07-3.25.54-3.19,3.13.14,5.78,0,5.82,5.6,5.84,5.24,0,10.49,0,15.74-.09,3.4-.08,5.22,1.22,5,4.82-.1,1.37.31,2.92-.21,4.07s-1.92,2.79-3,2.81c-10.75.23-21.5.16-32.24.22-3.55,0-3.59-2.53-3.62-4.91-.08-7.25,0-14.5,0-21.74Z"/><path class="cls-1" d="M1043.63,755.25c4.73-5.21,8.91-9.51,12.73-14.11,2.72-3.28,5.61-5.51,10.14-4.74,2.85.48,5.74.72,8.61,1.07a80.71,80.71,0,0,1-5.06,6.92c-4.69,5.18-9.48,10.28-14.41,15.23-1.62,1.62-1.68,2.61-.16,4.24,5.54,5.93,11,11.9,16.39,18,1.41,1.6,2.28,3.68,3.4,5.54l-6.24,1.26c-6.38,1.26-10.82-1.3-14.55-6.47a58.77,58.77,0,0,0-10.9-10.88c0,4.27-.17,8.54.06,12.79.18,3.44-1.13,4.57-4.52,4.62-8.23.11-8.21.25-8.21-7.94,0-13.12.08-26.23-.07-39.34,0-3.35.62-4.88,4.46-5,8.3-.17,8.3-.41,8.32,7.82C1043.64,747.62,1043.63,751,1043.63,755.25Z"/><path class="cls-2" d="M796.91,669.27c0-10.17,8-17.92,18.45-17.92s18.52,7.8,18.61,17.89-8.16,18.18-18.76,18.24A18.07,18.07,0,0,1,796.91,669.27Z"/><path class="cls-1" d="M914.19,753.27c2.84-4.51,5.52-8.56,8-12.76,1.72-2.94,3.75-4.86,7.46-4.16,2.81.54,5.65.89,8.48,1.33-1.31,2.44-2.47,5-4,7.31-3.83,6-7.93,11.81-11.64,17.87a14.7,14.7,0,0,0-2,6.58c-.29,5.23-.16,10.49-.12,15.73,0,2.55-1.14,3.45-3.66,3.52-8.88.26-9.49.27-8.7-8.65.91-10.24-2-18.72-8.35-26.54-3.35-4.16-6.06-8.84-9.08-13.28-1.68-2.47-1-3.68,1.94-3.75.12,0,.25,0,.37,0,12.18.2,8.64-2.63,15.7,8C910.43,747.16,912.09,749.93,914.19,753.27Z"/><path class="cls-2" d="M1179.32,651.37c10.26,0,18.17,7.87,18.1,17.89a18.53,18.53,0,0,1-18.88,18.22,17.77,17.77,0,0,1-18-18C1160.64,658.92,1168.55,651.31,1179.32,651.37Z"/><path class="cls-3" d="M1089.81,674.21c-1.82-.73-4.92-1.13-5.22-2.26-.79-3-.48-6.29-.29-9.44,0-.5,1.87-1.4,2.72-1.25,7.29,1.36,11.55-2.9,15.72-7.85,5.31-6.32,5.43-6.21,10.82-.13.91,1,2,2,2.77,3.05a11.36,11.36,0,0,0,11.3,4.89c4.25-.49,5,.61,5.2,5.16.2,5.36-.94,7.64-4.66,7.21-6.59-.76-10.3,2.85-14.09,7.29-5.85,6.83-6,6.7-12,0-1.18-1.29-2.34-2.6-3.52-3.88C1095.25,673.47,1094.81,673.3,1089.81,674.21Z"/><path class="cls-4" d="M908.75,667.13c0,5.71-.84,6.75-6.47,6.46a10.52,10.52,0,0,0-9.63,4.46c-1.67,2.17-3.65,4.1-5.48,6.15s-3.63,2.29-5.57,0c-2.17-2.57-4.57-4.94-6.72-7.53s-4.8-3.51-8.22-3.3c-6.1.36-8.92-4.09-6.21-9.72.53-1.09,2.35-2.5,3.29-2.31,7.79,1.51,11.83-3.56,16.09-8.53,4.78-5.58,4.85-5.52,9.69,0,1.07,1.22,2.24,2.36,3.19,3.67A10.67,10.67,0,0,0,903,661.23C908.28,660.83,908.79,661.62,908.75,667.13Z"/><path class="cls-5" d="M984.17,254.47c.18-7.73,5.5-12.82,13.18-12.61a12.87,12.87,0,1,1-.82,25.72C989.22,267.44,984,261.9,984.17,254.47Z"/><path class="cls-1" d="M1114.65,475.76A10.61,10.61,0,0,1,1125,486.38c0,5.74-5.37,10.71-11.41,10.55a10.35,10.35,0,0,1-10-10.9C1103.78,480,1108.41,475.68,1114.65,475.76Z"/><path class="cls-1" d="M879.36,475.84a10.36,10.36,0,0,1,10.46,10.41c.06,5.36-5.27,10.55-11,10.68a10.49,10.49,0,0,1-10.55-10.4C868.23,480.49,873,475.87,879.36,475.84Z"/><path class="cls-6" d="M965,264.76c0,5.54-4.6,10-10.44,10.08a10.33,10.33,0,0,1,.3-20.66C960.79,254.25,965.05,258.69,965,264.76Z"/><path class="cls-6" d="M1049.06,264.82c-.06,5.6-5.07,10.14-11,9.95-5.61-.19-9.63-4.49-9.63-10.29,0-6.09,4.34-10.31,10.45-10.16S1049.13,258.7,1049.06,264.82Z"/><path class="cls-2" d="M850.68,762.58a8.4,8.4,0,0,1,8.66-8.29,8.56,8.56,0,0,1,8.18,8.91,8.7,8.7,0,0,1-9.24,8.23C853.75,771.27,850.57,767.55,850.68,762.58Z"/><path class="cls-7" d="M1141.88,402.41c9.36-4.18,16.15-11.18,21.39-19.8.71-1.18.74-2.78,1.08-4.19,22-9.43,34.35-26.58,39.2-49.43,1.35-6.37,1.09-13.08,1.58-19.62a33.79,33.79,0,0,1,1.59,3.07c13.66,33.36-3.18,71.62-37.12,84.63A77.47,77.47,0,0,1,1141.88,402.41Z"/><path class="cls-8" d="M830,378.34c0,1-.47,2.15,0,2.83,5,8.18,11.17,15.26,19.93,19.67a24.79,24.79,0,0,1,2.47,1.6c-34.94,0-62.82-23.09-68.52-57a58.58,58.58,0,0,1,4.45-34.08,6.66,6.66,0,0,1,1.5-2.05,62.75,62.75,0,0,0,3.65,29.82C800.2,357.11,811.52,371.11,830,378.34Z"/><path class="cls-1" d="M1008.52,440a12,12,0,0,1-11.38,11.65,11.69,11.69,0,0,1-11.93-11.8,11.56,11.56,0,0,1,11.7-11.61C1003.11,428.14,1008.47,433.57,1008.52,440Z"/><path class="cls-2" d="M997,407c-6.76.06-11.4-4.45-11.41-11.1a11.14,11.14,0,0,1,11.32-11.39A11.67,11.67,0,0,1,1008.28,396C1008.41,402,1003.24,407,997,407Z"/></svg>